# xmcd
#
# Track frame offsets:
#	150
#	19360
#	45281
#	62975
#	77475
#	100199
#	123078
#	141333
#	159555
#	180042
#
# Disc length: 3072 seconds
#
# Revision: 2
# Processed by: cddbd v1.5.2PL0 Copyright (c) Steve Scherf et al.
# Submitted via: audiograbber 1.83.01
#
DISCID=740bfe0a
DTITLE=Michael Wollny and Vincent Peirani - Tandem
DYEAR=2016
DGENRE=Jazz
TTITLE0=Song Yet Untitled
TTITLE1=Adagio For Strings
TTITLE2=Hunter
TTITLE3=Bells
TTITLE4=Did You Say Rotenberg?
TTITLE5=Sirènes
TTITLE6=Uniskate
TTITLE7=Vignette
TTITLE8=Fourth Of July [live]
TTITLE9=Travesuras [live]
EXTD=
EXTT0=
EXTT1=
EXTT2=
EXTT3=
EXTT4=
EXTT5=
EXTT6=
EXTT7=
EXTT8=
EXTT9=
PLAYORDER=
